<?xml version="1.0" encoding="UTF-8" standalone="no"?>
<!-- Created with Inkscape (http://www.inkscape.org/) -->

<svg
   width="370"
   height="469.99997"
   viewBox="0 0 97.895831 124.35416"
   version="1.1"
   id="svg1"
   xml:space="preserve"
   xmlns:inkscape="http://www.inkscape.org/namespaces/inkscape"
   xmlns:sodipodi="http://sodipodi.sourceforge.net/DTD/sodipodi-0.dtd"
   xmlns="http://www.w3.org/2000/svg"
   xmlns:svg="http://www.w3.org/2000/svg"><sodipodi:namedview
     id="namedview1"
     pagecolor="#ffffff"
     bordercolor="#666666"
     borderopacity="1.0"
     inkscape:showpageshadow="2"
     inkscape:pageopacity="0.0"
     inkscape:pagecheckerboard="0"
     inkscape:deskcolor="#d1d1d1"
     inkscape:document-units="px"
     showgrid="true"><inkscape:grid
       id="grid4"
       units="px"
       originx="-0.26287592"
       originy="7.7142707e-05"
       spacingx="0.26458333"
       spacingy="0.26458334"
       empcolor="#0099e5"
       empopacity="0.30196078"
       color="#0099e5"
       opacity="0.14901961"
       empspacing="5"
       dotted="false"
       gridanglex="30"
       gridanglez="30"
       visible="true" /></sodipodi:namedview><defs
     id="defs1" /><g
     inkscape:label="Layer 1"
     inkscape:groupmode="layer"
     id="layer1"
     transform="translate(-0.06955259,2.0410674e-5)"><g
       id="g11"
       transform="matrix(0.99545166,0,0,0.99742026,-63.964192,-98.434989)"
       inkscape:label="red_flame"
       style="opacity:1"><path
         style="display:inline;fill:#ff0000;fill-opacity:1;stroke:none"
         d="m 128.4552,220.31325 c 11.82838,-4.41188 19.17873,-13.04791 21.18485,-24.89043 0.60256,-3.55702 0.40456,-10.53892 -0.40518,-14.28748 -2.1183,-9.80632 -7.09491,-19.38135 -13.72801,-26.41278 -1.88709,-2.00041 -2.78398,-2.58714 -3.9548,-2.58714 -1.25101,0 -1.86982,0.95927 -2.87611,4.45848 -0.65312,2.27112 -1.74945,4.53735 -2.19501,4.53735 -0.12769,0 -0.43463,-0.62507 -0.68208,-1.38906 -1.20732,-3.7275 -3.11785,-7.35374 -5.84952,-11.1026 -0.92385,-1.26787 -2.09055,-3.0538 -2.59266,-3.96875 -1.29756,-2.36441 -2.73102,-6.85036 -3.2077,-10.03839 -0.44248,-2.95933 -0.82163,-3.66369 -1.97207,-3.66369 -0.56678,0 -1.30499,0.6074 -3.50223,2.88168 -6.99646,7.24177 -11.093276,16.41028 -12.160503,27.21467 -0.184956,1.87245 -0.43568,3.23466 -0.593728,3.2258 -0.646424,-0.0363 -2.921537,-3.27311 -4.409607,-6.27362 -2.026317,-4.08583 -2.918181,-4.77251 -4.540815,-3.49614 -1.28235,1.00869 -4.865378,8.66043 -6.6557,14.21358 -4.450754,13.80517 -4.015542,29.04149 1.077778,37.73192 3.566333,6.08502 9.057511,10.46522 17.165185,13.69231 2.58983,1.03083 1.8686,0.94302 -2.323868,-0.28293 -8.396331,-2.45523 -15.351419,-6.58179 -20.804321,-12.34354 -7.911287,-8.35936 -11.259083,-19.15296 -10.78121,-34.75957 0.708994,-23.15464 11.745806,-42.8625 14.549675,-42.8625 3.607481,0 2.656383,5.82449 9.09646,12.94604 1.870497,2.06842 2.070872,1.88002 2.275847,-2.13982 0.75381,-14.78326 7.295593,-29.39967 17.714437,-39.57965 2.1882,-2.138031 2.6212,-2.4474 3.4255,-2.4474 1.41505,0 1.82207,0.654642 2.09113,3.36333 0.2919,2.93852 1.13444,6.70581 2.14728,9.60125 1.23238,3.52305 3.12085,6.94388 6.28411,11.38324 3.45615,4.85041 6.10551,9.92641 7.42302,14.22201 0.65332,2.13009 1.02342,2.96249 1.294,2.91038 0.92941,-0.17899 2.26056,-3.23081 4.12874,-9.46563 0.88269,-2.94587 2.33804,-3.94058 4.30055,-2.93938 1.5151,0.77295 2.47726,1.65235 4.92544,4.50181 11.14042,12.96641 17.6153,28.40914 18.31487,43.68132 0.36994,8.07627 -1.2988,15.96846 -4.80014,22.70183 -5.24879,10.09387 -14.82463,17.67757 -26.9235,21.32236 -4.11265,1.23894 -5.28749,1.40319 -2.44011,0.34114 z"
         id="path12"
         sodipodi:nodetypes="sssssssssssssscssssssssssssssssssssssssscc"
         inkscape:label="flame" /><path
         style="display:inline;fill:#cc0000;fill-opacity:1;stroke:none"
         d="m 89.41253,217.39634 c -8.955417,-3.99247 -16.472222,-10.991 -20.28616,-18.88745 -2.805713,-5.809 -4.199543,-11.94507 -4.693049,-20.90961 -0.808389,-14.6844 3.001769,-28.23048 10.143844,-42.19354 2.163719,-4.23016 3.334419,-5.49417 4.54777,-5.49417 0.460506,0 0.888526,0.13794 1.1969,0.26341 1.058333,0.43062 1.971085,2.25388 2.116667,3.175 0.03152,0.19946 -0.534615,2.08708 -1.322917,3.70417 -8.81831,18.08951 -12.103272,37.50479 -8.551149,54.93535 1.083613,5.31738 3.557459,10.86406 6.757481,15.15113 2.135996,2.86159 6.155096,6.7019 9.481932,9.06012 3.271852,2.31925 3.313752,2.40155 0.608681,1.19559 z m 2.766641,-71.51995 c -0.762135,-0.48501 -2.745986,-1.89944 -2.742985,-1.89729 1.120589,0.80186 0.854249,-1.43186 0.987622,-3.48126 0.78011,-11.98722 3.843692,-21.01678 10.124882,-30.38541 3.62667,-5.40932 9.34063,-11.422868 10.99398,-11.422868 0.86374,0 1.47071,0.108018 1.81155,1.004483 0.6325,1.663605 0.26498,2.773895 -1.72668,5.118385 -5.61416,6.60877 -10.28832,15.34644 -12.535582,24.28741 -1.065544,4.23937 -1.564664,7.29399 -1.989717,12.17711 -0.343256,3.9434 -0.394028,4.17026 -1.061863,4.74471 -0.986477,0.84853 -2.382066,0.79602 -3.861207,-0.14527 z"
         id="path11"
         sodipodi:nodetypes="sssssssssssssssssssssss"
         inkscape:label="shadow" /></g><g
       id="g18"
       transform="matrix(0.75052203,0,0,0.76469045,-36.229763,-45.757594)"
       inkscape:label="blue_flame"
       style="opacity:1"><path
         style="display:inline;fill:#131a6d;fill-opacity:1;stroke:none"
         d="m 128.4552,220.31325 c 11.82838,-4.41188 19.17873,-13.04791 21.18485,-24.89043 0.60256,-3.55702 0.40456,-10.53892 -0.40518,-14.28748 -2.1183,-9.80632 -7.09491,-19.38135 -13.72801,-26.41278 -1.88709,-2.00041 -2.78398,-2.58714 -3.9548,-2.58714 -1.25101,0 -1.86982,0.95927 -2.87611,4.45848 -0.65312,2.27112 -1.74945,4.53735 -2.19501,4.53735 -0.12769,0 -0.43463,-0.62507 -0.68208,-1.38906 -1.20732,-3.7275 -3.11785,-7.35374 -5.84952,-11.1026 -0.92385,-1.26787 -2.09055,-3.0538 -2.59266,-3.96875 -1.29756,-2.36441 -2.73102,-6.85036 -3.2077,-10.03839 -0.44248,-2.95933 -0.82163,-3.66369 -1.97207,-3.66369 -0.56678,0 -1.30499,0.6074 -3.50223,2.88168 -6.99646,7.24177 -11.093276,16.41028 -12.160503,27.21467 -0.184956,1.87245 -0.43568,3.23466 -0.593728,3.2258 -0.646424,-0.0363 -2.921537,-3.27311 -4.409607,-6.27362 -2.026317,-4.08583 -2.918181,-4.77251 -4.540815,-3.49614 -1.28235,1.00869 -4.865378,8.66043 -6.6557,14.21358 -4.450754,13.80517 -4.015542,29.04149 1.077778,37.73192 3.566333,6.08502 9.057511,10.46522 17.165185,13.69231 2.58983,1.03083 1.8686,0.94302 -2.323868,-0.28293 -8.396331,-2.45523 -15.351419,-6.58179 -20.804321,-12.34354 -7.911287,-8.35936 -11.259083,-19.15296 -10.78121,-34.75957 0.708994,-23.15464 11.745806,-42.8625 14.549675,-42.8625 3.607481,0 2.656383,5.82449 9.09646,12.94604 1.870497,2.06842 2.070872,1.88002 2.275847,-2.13982 0.75381,-14.78326 7.295593,-29.39967 17.714437,-39.57965 2.1882,-2.138031 2.6212,-2.4474 3.4255,-2.4474 1.41505,0 1.82207,0.654642 2.09113,3.36333 0.2919,2.93852 1.13444,6.70581 2.14728,9.60125 1.23238,3.52305 3.12085,6.94388 6.28411,11.38324 3.45615,4.85041 6.10551,9.92641 7.42302,14.22201 0.65332,2.13009 1.02342,2.96249 1.294,2.91038 0.92941,-0.17899 2.26056,-3.23081 4.12874,-9.46563 0.88269,-2.94587 2.33804,-3.94058 4.30055,-2.93938 1.5151,0.77295 2.47726,1.65235 4.92544,4.50181 11.14042,12.96641 17.6153,28.40914 18.31487,43.68132 0.36994,8.07627 -1.2988,15.96846 -4.80014,22.70183 -5.24879,10.09387 -14.82463,17.67757 -26.9235,21.32236 -4.11265,1.23894 -5.28749,1.40319 -2.44011,0.34114 z"
         id="path17"
         sodipodi:nodetypes="sssssssssssssscssssssssssssssssssssssssscc"
         inkscape:label="flame" /><path
         style="display:inline;fill:#091043;fill-opacity:1;stroke:none"
         d="m 89.41253,217.39634 c -8.955417,-3.99247 -16.472222,-10.991 -20.28616,-18.88745 -2.805713,-5.809 -4.199543,-11.94507 -4.693049,-20.90961 -0.808389,-14.6844 3.001769,-28.23048 10.143844,-42.19354 2.163719,-4.23016 3.334419,-5.49417 4.54777,-5.49417 0.460506,0 0.888526,0.13794 1.1969,0.26341 1.058333,0.43062 1.971085,2.25388 2.116667,3.175 0.03152,0.19946 -0.534615,2.08708 -1.322917,3.70417 -8.81831,18.08951 -12.103272,37.50479 -8.551149,54.93535 1.083613,5.31738 3.557459,10.86406 6.757481,15.15113 2.135996,2.86159 6.155096,6.7019 9.481932,9.06012 3.271852,2.31925 3.313752,2.40155 0.608681,1.19559 z m 2.766641,-71.51995 c -0.762135,-0.48501 -2.745986,-1.89944 -2.742985,-1.89729 1.120589,0.80186 0.854249,-1.43186 0.987622,-3.48126 0.78011,-11.98722 3.843692,-21.01678 10.124882,-30.38541 3.62667,-5.40932 9.34063,-11.422868 10.99398,-11.422868 0.86374,0 1.47071,0.108018 1.81155,1.004483 0.6325,1.663605 0.26498,2.773895 -1.72668,5.118385 -5.61416,6.60877 -10.28832,15.34644 -12.535582,24.28741 -1.065544,4.23937 -1.564664,7.29399 -1.989717,12.17711 -0.343256,3.9434 -0.394028,4.17026 -1.061863,4.74471 -0.986477,0.84853 -2.382066,0.79602 -3.861207,-0.14527 z"
         id="path18"
         sodipodi:nodetypes="sssssssssssssssssssssss"
         inkscape:label="shadow" /></g><g
       id="g20"
       transform="matrix(0.56813914,0,0,0.59236665,-15.425751,-6.9997724)"
       inkscape:label="yellow_flame"
       style="opacity:1"><path
         style="display:inline;fill:#ffd600;fill-opacity:1;stroke:none"
         d="m 128.4552,220.31325 c 11.82838,-4.41188 19.17873,-13.04791 21.18485,-24.89043 0.60256,-3.55702 0.40456,-10.53892 -0.40518,-14.28748 -2.1183,-9.80632 -7.09491,-19.38135 -13.72801,-26.41278 -1.88709,-2.00041 -2.78398,-2.58714 -3.9548,-2.58714 -1.25101,0 -1.86982,0.95927 -2.87611,4.45848 -0.65312,2.27112 -1.74945,4.53735 -2.19501,4.53735 -0.12769,0 -0.43463,-0.62507 -0.68208,-1.38906 -1.20732,-3.7275 -3.11785,-7.35374 -5.84952,-11.1026 -0.92385,-1.26787 -2.09055,-3.0538 -2.59266,-3.96875 -1.29756,-2.36441 -2.73102,-6.85036 -3.2077,-10.03839 -0.44248,-2.95933 -0.82163,-3.66369 -1.97207,-3.66369 -0.56678,0 -1.30499,0.6074 -3.50223,2.88168 -6.99646,7.24177 -11.093276,16.41028 -12.160503,27.21467 -0.184956,1.87245 -0.43568,3.23466 -0.593728,3.2258 -0.646424,-0.0363 -2.921537,-3.27311 -4.409607,-6.27362 -2.026317,-4.08583 -2.918181,-4.77251 -4.540815,-3.49614 -1.28235,1.00869 -4.865378,8.66043 -6.6557,14.21358 -4.450754,13.80517 -4.015542,29.04149 1.077778,37.73192 3.566333,6.08502 9.057511,10.46522 17.165185,13.69231 2.58983,1.03083 1.8686,0.94302 -2.323868,-0.28293 -8.396331,-2.45523 -15.351419,-6.58179 -20.804321,-12.34354 -7.911287,-8.35936 -11.259083,-19.15296 -10.78121,-34.75957 0.708994,-23.15464 11.745806,-42.8625 14.549675,-42.8625 3.607481,0 2.656383,5.82449 9.09646,12.94604 1.870497,2.06842 2.070872,1.88002 2.275847,-2.13982 0.75381,-14.78326 7.295593,-29.39967 17.714437,-39.57965 2.1882,-2.138031 2.6212,-2.4474 3.4255,-2.4474 1.41505,0 1.82207,0.654642 2.09113,3.36333 0.2919,2.93852 1.13444,6.70581 2.14728,9.60125 1.23238,3.52305 3.12085,6.94388 6.28411,11.38324 3.45615,4.85041 6.10551,9.92641 7.42302,14.22201 0.65332,2.13009 1.02342,2.96249 1.294,2.91038 0.92941,-0.17899 2.26056,-3.23081 4.12874,-9.46563 0.88269,-2.94587 2.33804,-3.94058 4.30055,-2.93938 1.5151,0.77295 2.47726,1.65235 4.92544,4.50181 11.14042,12.96641 17.6153,28.40914 18.31487,43.68132 0.36994,8.07627 -1.2988,15.96846 -4.80014,22.70183 -5.24879,10.09387 -14.82463,17.67757 -26.9235,21.32236 -4.11265,1.23894 -5.28749,1.40319 -2.44011,0.34114 z"
         id="path19"
         sodipodi:nodetypes="sssssssssssssscssssssssssssssssssssssssscc"
         inkscape:label="flame" /><path
         style="display:inline;fill:#e0bc00;fill-opacity:1;stroke:none"
         d="m 89.41253,217.39634 c -8.955417,-3.99247 -16.472222,-10.991 -20.28616,-18.88745 -2.805713,-5.809 -4.199543,-11.94507 -4.693049,-20.90961 -0.808389,-14.6844 3.001769,-28.23048 10.143844,-42.19354 2.163719,-4.23016 3.334419,-5.49417 4.54777,-5.49417 0.460506,0 0.888526,0.13794 1.1969,0.26341 1.058333,0.43062 1.971085,2.25388 2.116667,3.175 0.03152,0.19946 -0.534615,2.08708 -1.322917,3.70417 -8.81831,18.08951 -12.103272,37.50479 -8.551149,54.93535 1.083613,5.31738 3.557459,10.86406 6.757481,15.15113 2.135996,2.86159 6.155096,6.7019 9.481932,9.06012 3.271852,2.31925 3.313752,2.40155 0.608681,1.19559 z m 2.766641,-71.51995 c -0.762135,-0.48501 -2.745986,-1.89944 -2.742985,-1.89729 1.120589,0.80186 0.854249,-1.43186 0.987622,-3.48126 0.78011,-11.98722 3.843692,-21.01678 10.124882,-30.38541 3.62667,-5.40932 9.34063,-11.422868 10.99398,-11.422868 0.86374,0 1.47071,0.108018 1.81155,1.004483 0.6325,1.663605 0.26498,2.773895 -1.72668,5.118385 -5.61416,6.60877 -10.28832,15.34644 -12.535582,24.28741 -1.065544,4.23937 -1.564664,7.29399 -1.989717,12.17711 -0.343256,3.9434 -0.394028,4.17026 -1.061863,4.74471 -0.986477,0.84853 -2.382066,0.79602 -3.861207,-0.14527 z"
         id="path20"
         sodipodi:nodetypes="sssssssssssssssssssssss"
         inkscape:label="shadow" /></g><g
       id="g22"
       transform="matrix(0.43353983,0,0,0.45652698,-0.18469973,23.454407)"
       inkscape:label="green_flame"
       style="display:inline"><path
         style="display:inline;opacity:1;fill:#00a750;fill-opacity:1;stroke:none"
         d="m 128.4552,220.31325 c 11.82838,-4.41188 19.17873,-13.04791 21.18485,-24.89043 0.60256,-3.55702 0.40456,-10.53892 -0.40518,-14.28748 -2.1183,-9.80632 -7.09491,-19.38135 -13.72801,-26.41278 -1.88709,-2.00041 -2.78398,-2.58714 -3.9548,-2.58714 -1.25101,0 -1.86982,0.95927 -2.87611,4.45848 -0.65312,2.27112 -1.74945,4.53735 -2.19501,4.53735 -0.12769,0 -0.43463,-0.62507 -0.68208,-1.38906 -1.20732,-3.7275 -3.11785,-7.35374 -5.84952,-11.1026 -0.92385,-1.26787 -2.09055,-3.0538 -2.59266,-3.96875 -1.29756,-2.36441 -2.73102,-6.85036 -3.2077,-10.03839 -0.44248,-2.95933 -0.82163,-3.66369 -1.97207,-3.66369 -0.56678,0 -1.30499,0.6074 -3.50223,2.88168 -6.99646,7.24177 -11.093276,16.41028 -12.160503,27.21467 -0.184956,1.87245 -0.43568,3.23466 -0.593728,3.2258 -0.646424,-0.0363 -2.921537,-3.27311 -4.409607,-6.27362 -2.026317,-4.08583 -2.918181,-4.77251 -4.540815,-3.49614 -1.28235,1.00869 -4.865378,8.66043 -6.6557,14.21358 -4.450754,13.80517 -4.015542,29.04149 1.077778,37.73192 3.566333,6.08502 9.057511,10.46522 17.165185,13.69231 2.58983,1.03083 1.8686,0.94302 -2.323868,-0.28293 -8.396331,-2.45523 -15.351419,-6.58179 -20.804321,-12.34354 -7.911287,-8.35936 -11.259083,-19.15296 -10.78121,-34.75957 0.708994,-23.15464 11.745806,-42.8625 14.549675,-42.8625 3.607481,0 2.656383,5.82449 9.09646,12.94604 1.870497,2.06842 2.070872,1.88002 2.275847,-2.13982 0.75381,-14.78326 7.295593,-29.39967 17.714437,-39.57965 2.1882,-2.138031 2.6212,-2.4474 3.4255,-2.4474 1.41505,0 1.82207,0.654642 2.09113,3.36333 0.2919,2.93852 1.13444,6.70581 2.14728,9.60125 1.23238,3.52305 3.12085,6.94388 6.28411,11.38324 3.45615,4.85041 6.10551,9.92641 7.42302,14.22201 0.65332,2.13009 1.02342,2.96249 1.294,2.91038 0.92941,-0.17899 2.26056,-3.23081 4.12874,-9.46563 0.88269,-2.94587 2.33804,-3.94058 4.30055,-2.93938 1.5151,0.77295 2.47726,1.65235 4.92544,4.50181 11.14042,12.96641 17.6153,28.40914 18.31487,43.68132 0.36994,8.07627 -1.2988,15.96846 -4.80014,22.70183 -5.24879,10.09387 -14.82463,17.67757 -26.9235,21.32236 -4.11265,1.23894 -5.28749,1.40319 -2.44011,0.34114 z"
         id="path21"
         sodipodi:nodetypes="sssssssssssssscssssssssssssssssssssssssscc"
         inkscape:label="flame" /><path
         style="display:inline;opacity:1;fill:#009448;fill-opacity:1;stroke:none"
         d="m 89.41253,217.39634 c -8.955417,-3.99247 -16.472222,-10.991 -20.28616,-18.88745 -2.805713,-5.809 -4.199543,-11.94507 -4.693049,-20.90961 -0.808389,-14.6844 3.001769,-28.23048 10.143844,-42.19354 2.163719,-4.23016 3.334419,-5.49417 4.54777,-5.49417 0.460506,0 0.888526,0.13794 1.1969,0.26341 1.058333,0.43062 1.971085,2.25388 2.116667,3.175 0.03152,0.19946 -0.534615,2.08708 -1.322917,3.70417 -8.81831,18.08951 -12.103272,37.50479 -8.551149,54.93535 1.083613,5.31738 3.557459,10.86406 6.757481,15.15113 2.135996,2.86159 6.155096,6.7019 9.481932,9.06012 3.271852,2.31925 3.313752,2.40155 0.608681,1.19559 z m 2.766641,-71.51995 c -0.762135,-0.48501 -2.745986,-1.89944 -2.742985,-1.89729 1.120589,0.80186 0.854249,-1.43186 0.987622,-3.48126 0.78011,-11.98722 3.843692,-21.01678 10.124882,-30.38541 3.62667,-5.40932 9.34063,-11.422868 10.99398,-11.422868 0.86374,0 1.47071,0.108018 1.81155,1.004483 0.6325,1.663605 0.26498,2.773895 -1.72668,5.118385 -5.61416,6.60877 -10.28832,15.34644 -12.535582,24.28741 -1.065544,4.23937 -1.564664,7.29399 -1.989717,12.17711 -0.343256,3.9434 -0.394028,4.17026 -1.061863,4.74471 -0.986477,0.84853 -2.382066,0.79602 -3.861207,-0.14527 z"
         id="path22"
         sodipodi:nodetypes="sssssssssssssssssssssss"
         inkscape:label="shadow" /></g></g></svg>
